<?xml version="1.0" encoding="UTF-8" standalone="no"?>
<!-- Created with Inkscape (http://www.inkscape.org/) -->

<svg
   xmlns:dc="http://purl.org/dc/elements/1.1/"
   xmlns:cc="http://creativecommons.org/ns#"
   xmlns:rdf="http://www.w3.org/1999/02/22-rdf-syntax-ns#"
   xmlns:svg="http://www.w3.org/2000/svg"
   xmlns="http://www.w3.org/2000/svg"
   xmlns:sodipodi="http://sodipodi.sourceforge.net/DTD/sodipodi-0.dtd"
   xmlns:inkscape="http://www.inkscape.org/namespaces/inkscape"
   width="1052.3622"
   height="744.09448"
   id="svg2"
   version="1.1"
   inkscape:version="0.47 r22583"
   sodipodi:docname="login.svg">
  <defs
     id="defs4">
    <inkscape:path-effect
       effect="spiro"
       id="path-effect3647"
       is_visible="true" />
    <inkscape:path-effect
       effect="spiro"
       id="path-effect4533"
       is_visible="true" />
    <inkscape:path-effect
       effect="spiro"
       id="path-effect4529"
       is_visible="true" />
    <inkscape:path-effect
       effect="spiro"
       id="path-effect4525"
       is_visible="true" />
    <inkscape:path-effect
       effect="spiro"
       id="path-effect4298"
       is_visible="true" />
    <inkscape:path-effect
       effect="spiro"
       id="path-effect4294"
       is_visible="true" />
    <inkscape:path-effect
       effect="spiro"
       id="path-effect4290"
       is_visible="true" />
    <inkscape:path-effect
       effect="spiro"
       id="path-effect3633"
       is_visible="true" />
    <inkscape:perspective
       sodipodi:type="inkscape:persp3d"
       inkscape:vp_x="0 : 526.18109 : 1"
       inkscape:vp_y="0 : 1000 : 0"
       inkscape:vp_z="744.09448 : 526.18109 : 1"
       inkscape:persp3d-origin="372.04724 : 350.78739 : 1"
       id="perspective10" />
    <inkscape:perspective
       id="perspective3614"
       inkscape:persp3d-origin="0.5 : 0.33333333 : 1"
       inkscape:vp_z="1 : 0.5 : 1"
       inkscape:vp_y="0 : 1000 : 0"
       inkscape:vp_x="0 : 0.5 : 1"
       sodipodi:type="inkscape:persp3d" />
    <inkscape:perspective
       id="perspective3614-5"
       inkscape:persp3d-origin="0.5 : 0.33333333 : 1"
       inkscape:vp_z="1 : 0.5 : 1"
       inkscape:vp_y="0 : 1000 : 0"
       inkscape:vp_x="0 : 0.5 : 1"
       sodipodi:type="inkscape:persp3d" />
    <inkscape:perspective
       sodipodi:type="inkscape:persp3d"
       inkscape:vp_x="0 : 0.5 : 1"
       inkscape:vp_y="0 : 1000 : 0"
       inkscape:vp_z="1 : 0.5 : 1"
       inkscape:persp3d-origin="0.5 : 0.33333333 : 1"
       id="perspective2824" />
    <inkscape:perspective
       id="perspective10-8"
       inkscape:persp3d-origin="372.04724 : 350.78739 : 1"
       inkscape:vp_z="744.09448 : 526.18109 : 1"
       inkscape:vp_y="0 : 1000 : 0"
       inkscape:vp_x="0 : 526.18109 : 1"
       sodipodi:type="inkscape:persp3d" />
    <inkscape:perspective
       id="perspective3655"
       inkscape:persp3d-origin="0.5 : 0.33333333 : 1"
       inkscape:vp_z="1 : 0.5 : 1"
       inkscape:vp_y="0 : 1000 : 0"
       inkscape:vp_x="0 : 0.5 : 1"
       sodipodi:type="inkscape:persp3d" />
    <inkscape:perspective
       id="perspective4316"
       inkscape:persp3d-origin="0.5 : 0.33333333 : 1"
       inkscape:vp_z="1 : 0.5 : 1"
       inkscape:vp_y="0 : 1000 : 0"
       inkscape:vp_x="0 : 0.5 : 1"
       sodipodi:type="inkscape:persp3d" />
    <inkscape:path-effect
       effect="spiro"
       id="path-effect4290-0"
       is_visible="true" />
    <inkscape:perspective
       id="perspective4355"
       inkscape:persp3d-origin="0.5 : 0.33333333 : 1"
       inkscape:vp_z="1 : 0.5 : 1"
       inkscape:vp_y="0 : 1000 : 0"
       inkscape:vp_x="0 : 0.5 : 1"
       sodipodi:type="inkscape:persp3d" />
    <inkscape:perspective
       id="perspective4545"
       inkscape:persp3d-origin="0.5 : 0.33333333 : 1"
       inkscape:vp_z="1 : 0.5 : 1"
       inkscape:vp_y="0 : 1000 : 0"
       inkscape:vp_x="0 : 0.5 : 1"
       sodipodi:type="inkscape:persp3d" />
  </defs>
  <sodipodi:namedview
     id="base"
     pagecolor="#ffffff"
     bordercolor="#666666"
     borderopacity="1.0"
     inkscape:pageopacity="0.63529412"
     inkscape:pageshadow="2"
     inkscape:zoom="0.49497475"
     inkscape:cx="98.231669"
     inkscape:cy="343.40077"
     inkscape:document-units="px"
     inkscape:current-layer="layer1"
     showgrid="false"
     inkscape:window-width="1680"
     inkscape:window-height="1003"
     inkscape:window-x="0"
     inkscape:window-y="24"
     inkscape:window-maximized="1" />
  <metadata
     id="metadata7">
    <rdf:RDF>
      <cc:Work
         rdf:about="">
        <dc:format>image/svg+xml</dc:format>
        <dc:type
           rdf:resource="http://purl.org/dc/dcmitype/StillImage" />
        <dc:title />
      </cc:Work>
    </rdf:RDF>
  </metadata>
  <g
     inkscape:label="Layer 1"
     inkscape:groupmode="layer"
     id="layer1"
     transform="translate(0,-308.2677)">
    <rect
       style="color:#000000;fill:#ffffff;fill-opacity:1;fill-rule:evenodd;stroke:#000000;stroke-width:1;stroke-linecap:butt;stroke-linejoin:round;stroke-miterlimit:4;stroke-opacity:1;stroke-dasharray:none;stroke-dashoffset:0;marker:none;visibility:visible;display:inline;overflow:visible;enable-background:accumulate"
       id="rect3639"
       width="1057.1428"
       height="748.57141"
       x="1.4285715"
       y="-0.19122729"
       rx="0"
       ry="0"
       transform="translate(0,308.2677)" />
    <path
       style="color:#000000;fill:none;stroke:#000000;stroke-width:3.39999986;stroke-linecap:round;stroke-linejoin:round;stroke-miterlimit:4;stroke-opacity:1;stroke-dasharray:none;stroke-dashoffset:0;marker:none;visibility:visible;display:inline;overflow:visible;enable-background:accumulate"
       d="M 3.4144865,497.12127 C 71.297516,452.10418 102.08279,444.93414 135.60767,442.81493 c 30.81484,-1.9479 61.45194,7.86011 74.31403,22.15127 4.99058,5.54511 15.40138,9.90001 22.15127,36.44242 7.38277,29.03113 4.28735,42.15893 4.28735,42.15893 0,0 10.00377,0.71455 15.72023,6.431 5.71649,5.71646 7.86015,24.29497 7.86015,24.29497 0,0 9.99952,7.89468 17.84711,19.67556 6.01709,9.03292 7.87695,27.48522 7.87695,27.48522 0,0 -24.29492,-13.57656 -40.01522,-17.86391 -15.72026,-4.28736 -47.87534,-4.28736 -56.45004,0 -8.5747,4.28735 -45.73168,11.43291 -53.59183,57.16459 -7.86011,45.73168 15.42419,78.86801 -12.86202,145.76974 C 86.746035,891.67 4.1290784,908.70648 4.1290784,908.70648 3.2481832,752.57343 0.31606752,663.59822 3.4144865,497.12127 z"
       id="path2834"
       sodipodi:nodetypes="cssscscscsssscc" />
    <path
       style="color:#000000;fill:none;stroke:#000000;stroke-width:3.39999986;stroke-linecap:butt;stroke-linejoin:miter;stroke-miterlimit:4;stroke-opacity:1;stroke-dasharray:none;stroke-dashoffset:0;marker:none;visibility:visible;display:inline;overflow:visible;enable-background:accumulate"
       d="m 235.28848,543.9248 c 0,0 -10.71836,-1.4291 -15.00571,3.5728 -4.28736,5.00191 -7.1456,7.50286 -3.93006,12.86206 3.2155,5.35916 2.85821,8.93195 17.86392,12.50475 15.00571,3.57276 24.65226,1.78636 24.65226,1.78636 l -2.50095,-13.21931 -7.86015,-13.21931 -9.28926,-3.5728 -5.35916,-1.4291 -1.42914,0.35734 0,0"
       id="path3612" />
    <path
       sodipodi:nodetypes="csssccccccczccccc"
       style="color:#000000;fill:none;stroke:#000000;stroke-width:3.39999986;stroke-linecap:round;stroke-linejoin:round;stroke-miterlimit:4;stroke-opacity:1;stroke-dasharray:none;stroke-dashoffset:0;marker:none;visibility:visible;display:inline;overflow:visible;enable-background:accumulate"
       d="m 219.92547,566.79066 c 0,0 1.42914,1.7864 -2.85821,8.57471 -4.28735,6.78826 -25.00951,25.72406 -27.51047,26.79587 -2.50095,1.07185 -0.35733,0.35734 -2.85824,1.42915 -2.50095,1.0718 21.43671,-4.28736 21.43671,-4.28736 l 14.64846,0 17.14936,2.14366 15.00571,3.9301 12.50476,5.71645 11.43295,6.07371 6.43101,3.9301 c 0,0 0.24209,-7.4624 -1.42911,-13.57661 -1.67115,-6.11421 -6.97665,-18.51929 -15.363,-25.72407 l -7.86015,-7.50285 -13.57657,0 -15.00571,-2.1437 -12.1475,-5.35916 z"
       id="path3616" />
    <path
       sodipodi:type="arc"
       style="color:#000000;fill:none;stroke:#000000;stroke-width:0.9320659;stroke-linecap:round;stroke-linejoin:round;stroke-miterlimit:4;stroke-opacity:1;stroke-dasharray:none;stroke-dashoffset:0;marker:none;visibility:visible;display:inline;overflow:visible;enable-background:accumulate"
       id="path2836"
       sodipodi:cx="191.78572"
       sodipodi:cy="413.25504"
       sodipodi:rx="4.4362121"
       sodipodi:ry="5.3162823"
       d="m 196.22193,413.25504 c 0,2.9361 -1.98616,5.31628 -4.43621,5.31628 -2.45005,0 -4.43621,-2.38018 -4.43621,-5.31628 0,-2.93611 1.98616,-5.31629 4.43621,-5.31629 2.33075,0 4.26404,2.16147 4.42555,4.94789"
       transform="matrix(4.0748921,1.0664355,-0.79982658,3.0561691,-293.21478,-947.51726)"
       sodipodi:start="0"
       sodipodi:end="6.2138335"
       sodipodi:open="true" />
    <path
       sodipodi:type="arc"
       style="color:#000000;fill:none;stroke:#000000;stroke-width:0.84967655;stroke-linecap:round;stroke-linejoin:round;stroke-miterlimit:4;stroke-opacity:1;stroke-dasharray:none;stroke-dashoffset:0;marker:none;visibility:visible;display:inline;overflow:visible;enable-background:accumulate"
       id="path3610"
       sodipodi:cx="191.18303"
       sodipodi:cy="413.12112"
       sodipodi:rx="0.73660713"
       sodipodi:ry="0.9033255"
       d="m 191.91964,413.12112 c 0,0.4989 -0.32979,0.90333 -0.73661,0.90333 -0.40682,0 -0.73661,-0.40443 -0.73661,-0.90333 0,-0.49889 0.32979,-0.90332 0.73661,-0.90332 0.39493,0 0.71959,0.38196 0.73597,0.86586 l -0.73597,0.0375 z"
       transform="matrix(3.9282529,0.7622418,-0.7622418,3.9282529,-276.12515,-1248.7634)"
       sodipodi:start="0"
       sodipodi:end="6.2417037" />
    <path
       sodipodi:open="true"
       sodipodi:end="6.2138335"
       sodipodi:start="0"
       transform="translate(755.7143,369.69627)"
       d="m -545.71428,152.66591 c 0,26.03628 -26.22332,47.14286 -58.57143,47.14286 -32.3481,0 -58.57143,-21.10658 -58.57143,-47.14286 0,-26.03628 26.22333,-47.14286 58.57143,-47.14286 30.77294,0 56.29819,19.16711 58.43064,43.87604"
       sodipodi:ry="47.142857"
       sodipodi:rx="58.57143"
       sodipodi:cy="152.66591"
       sodipodi:cx="-604.28571"
       id="path4286"
       style="opacity:0.29323306;color:#000000;fill:#00ffff;stroke:#000000;stroke-width:2;stroke-linecap:round;stroke-linejoin:round;stroke-miterlimit:4;stroke-opacity:1;stroke-dasharray:none;stroke-dashoffset:0;marker:none;visibility:visible;display:inline;overflow:visible;enable-background:accumulate"
       sodipodi:type="arc" />
    <path
       inkscape:original-d="M 110,490.9336 62.857145,459.50504"
       inkscape:path-effect="#path-effect4290"
       id="path4288"
       d="M 110,490.9336 62.857145,459.50504"
       style="fill:none;stroke:#000000;stroke-width:1px;stroke-linecap:butt;stroke-linejoin:miter;stroke-opacity:1" />
    <path
       inkscape:original-d="M 92.142848,522.36224 30.714274,482.36226"
       inkscape:path-effect="#path-effect4290-0"
       id="path4288-6"
       d="M 92.142848,522.36224 30.714274,482.36226"
       style="fill:none;stroke:#000000;stroke-width:1px;stroke-linecap:butt;stroke-linejoin:miter;stroke-opacity:1" />
    <path
       id="path4463"
       d=""
       style="fill:#ffffff;fill-opacity:1;fill-rule:nonzero;stroke:#000000;stroke-width:2;stroke-linecap:round;stroke-linejoin:round;stroke-miterlimit:4;stroke-opacity:1;stroke-dasharray:none;stroke-dashoffset:0" />
    <text
       sodipodi:linespacing="125%"
       id="text4478"
       y="1260.4536"
       x="-678.82251"
       style="font-size:40px;font-style:normal;font-variant:normal;font-weight:normal;font-stretch:normal;text-align:start;line-height:125%;writing-mode:lr-tb;text-anchor:start;fill:#000000;fill-opacity:1;stroke:none;font-family:Arhangai;-inkscape-font-specification:Arhangai"
       xml:space="preserve"><tspan
         y="1260.4536"
         x="-678.82251"
         id="tspan4480"
         sodipodi:role="line" /></text>
    <text
       xml:space="preserve"
       style="font-size:40px;font-style:normal;font-variant:normal;font-weight:normal;font-stretch:normal;text-align:start;line-height:125%;writing-mode:lr-tb;text-anchor:start;fill:#000000;fill-opacity:1;stroke:none;font-family:FreeSans;-inkscape-font-specification:FreeSans"
       x="-1268.7516"
       y="616.81525"
       id="text4486"
       sodipodi:linespacing="125%"
       transform="translate(0,308.2677)"><tspan
         sodipodi:role="line"
         id="tspan4488" /></text>
    <g
       id="g3671"
       transform="translate(76.771593,-6.0609152)">
      <g
         transform="matrix(0.72082414,0,0,1.0340505,112.70105,-137.82908)"
         id="g3641">
        <rect
           rx="30.390072"
           style="color:#000000;fill:#ffffff;fill-opacity:1;fill-rule:evenodd;stroke:#000000;stroke-width:5.40615559;stroke-linecap:butt;stroke-linejoin:miter;stroke-miterlimit:4;stroke-opacity:1;stroke-dasharray:none;stroke-dashoffset:0;marker:none;visibility:visible;display:inline;overflow:visible;enable-background:accumulate"
           id="rect2816"
           width="242.18805"
           height="158.15829"
           x="641.91272"
           y="606.35522"
           ry="21.184555" />
        <path
           sodipodi:type="star"
           style="fill:#008000;fill-opacity:1;fill-rule:nonzero;stroke:none"
           id="path3604"
           sodipodi:sides="3"
           sodipodi:cx="-178.57143"
           sodipodi:cy="82.362183"
           sodipodi:r1="98.829887"
           sodipodi:r2="49.414944"
           sodipodi:arg1="0.072337331"
           sodipodi:arg2="1.1195349"
           inkscape:flatsided="true"
           inkscape:rounded="0.14"
           inkscape:randomized="0"
           d="m -79.999999,89.50504 c -1.732051,23.9023 -134.209061,88.10222 -154.043041,74.65107 -19.83397,-13.45115 -9.19423,-160.2795654 12.3718,-170.7307159 21.56602,-10.4511501 143.403291,72.1773449 141.671241,96.0796459 z"
           transform="matrix(1.1486082,-0.04218246,0.09855078,0.79806595,947.31169,614.42771)" />
      </g>
      <rect
         rx="21.905897"
         transform="matrix(0,-1,1,0,0,0)"
         ry="21.905897"
         y="326.42606"
         x="-560.14948"
         height="236.06631"
         width="70.042885"
         id="rect2816-3"
         style="color:#000000;fill:#ffffff;fill-opacity:1;fill-rule:evenodd;stroke:#000000;stroke-width:3;stroke-linecap:butt;stroke-linejoin:miter;stroke-miterlimit:4;stroke-opacity:1;stroke-dasharray:none;stroke-dashoffset:0;marker:none;visibility:visible;display:inline;overflow:visible;enable-background:accumulate" />
      <rect
         rx="21.905897"
         transform="matrix(0,-1,1,0,0,0)"
         ry="21.905897"
         y="326.42606"
         x="-651.89581"
         height="236.06631"
         width="70.042885"
         id="rect2816-31"
         style="color:#000000;fill:#ffffff;fill-opacity:1;fill-rule:evenodd;stroke:#000000;stroke-width:3;stroke-linecap:butt;stroke-linejoin:miter;stroke-miterlimit:4;stroke-opacity:1;stroke-dasharray:none;stroke-dashoffset:0;marker:none;visibility:visible;display:inline;overflow:visible;enable-background:accumulate" />
      <text
         xml:space="preserve"
         style="font-size:19.81673622px;font-style:normal;font-variant:normal;font-weight:normal;font-stretch:normal;text-align:start;line-height:125%;writing-mode:lr-tb;text-anchor:start;fill:#00ffff;fill-opacity:1;stroke:none;font-family:FreeSans;-inkscape-font-specification:FreeSans"
         x="329.80872"
         y="678.39587"
         id="text4474"
         sodipodi:linespacing="125%"><tspan
           sodipodi:role="line"
           id="tspan4476"
           x="329.80872"
           y="678.39587">забыли пароль?</tspan></text>
      <text
         sodipodi:linespacing="125%"
         id="text4490"
         y="544.70856"
         x="368.65137"
         style="font-size:56px;font-style:normal;font-variant:normal;font-weight:normal;font-stretch:normal;text-align:start;line-height:125%;writing-mode:lr-tb;text-anchor:start;fill:#000000;fill-opacity:1;stroke:none;font-family:Sans;-inkscape-font-specification:Sans"
         xml:space="preserve"><tspan
           y="544.70856"
           x="368.65137"
           id="tspan4492"
           sodipodi:role="line">login</tspan></text>
      <text
         sodipodi:linespacing="125%"
         id="text4494"
         y="643.70361"
         x="348.4483"
         style="font-size:56px;font-style:normal;font-variant:normal;font-weight:normal;font-stretch:normal;text-align:start;line-height:125%;writing-mode:lr-tb;text-anchor:start;fill:#000000;fill-opacity:1;stroke:none;font-family:Sans;-inkscape-font-specification:Sans"
         xml:space="preserve"><tspan
           y="643.70361"
           x="348.4483"
           id="tspan4496"
           sodipodi:role="line">*******</tspan></text>
    </g>
    <path
       style="fill:#000000;fill-opacity:1;fill-rule:nonzero;stroke:none"
       id="path3663"
       d="m 20.362873,199.9511 c 1.287502,3.26175 2.905814,6.40855 3.959971,9.76197 1.83667,5.84271 3.015405,11.95526 4.434999,17.90632 0.679739,2.19727 1.277346,4.42166 2.039216,6.59183 0.803814,2.28964 1.769793,4.51908 2.65469,6.77862 0.927311,2.48364 1.906068,4.94868 2.781933,7.45093 0.943745,2.69617 1.718418,5.44989 2.675818,8.14124 1.798916,5.05694 3.912664,9.97675 5.967044,14.93154 1.061063,2.53942 2.077549,5.09792 3.183187,7.61824 4.277802,9.75134 2.650621,5.04695 6.593372,15.08367 2.917459,7.42672 5.358307,15.03923 8.086117,22.53652 4.227996,11.02139 7.405116,22.52916 13.502176,32.73435 0.939181,1.57199 2.060637,3.02764 3.090955,4.54146 3.331511,4.31678 6.719459,8.60729 10.294156,12.72743 1.239562,1.42869 2.443471,2.8966 3.804497,4.2101 0.958805,0.92533 6.277727,5.07806 7.400986,5.9636 1.10698,0.617 2.18691,1.28526 3.32095,1.85099 1.04327,0.52046 2.15866,0.88667 3.20355,1.40386 4.28963,2.12323 8.38618,4.67331 12.36429,7.32301 0.79655,0.57513 1.59309,1.15026 2.38964,1.7254 0.72883,0.45251 1.48818,0.85922 2.1865,1.35754 0.77209,0.55095 1.45415,1.22008 2.21651,1.78442 0.65414,0.48422 1.39526,0.8475 2.02891,1.35823 4.63042,3.73224 -0.0852,0.68983 4.49848,3.44403 0.82981,0.6149 1.67916,1.20426 2.48941,1.84469 0.85951,0.67935 1.65132,1.44215 2.51758,2.11286 2.9036,2.24815 6.05966,4.23486 9.05977,6.35534 1.92683,0.81063 3.18332,3.44813 5.3952,3.6813 0.31867,0.0336 0.5788,-0.34019 0.89923,-0.33983 0.9422,0.001 1.6217,0.8608 2.23117,1.38984 1.08959,1.40569 2.49429,2.64397 3.46355,4.1444 0.43476,0.67301 0.67434,1.46479 1.1437,2.11415 0.14143,0.19567 0.43485,0.48165 0.63552,0.34742 0.27582,-0.1845 0.18355,-0.6378 0.27533,-0.9567 -0.007,-0.53279 -0.46789,-1.31047 -0.0195,-1.59835 0.39205,-0.25174 0.71732,0.6016 1.01928,0.95642 0.81027,0.95212 1.23215,2.22983 2.16373,3.06364 0.1434,0.12835 0.3835,-0.033 0.57525,-0.0495 0.3583,0.53823 0.7166,1.07646 1.0749,1.61469 0.97186,0.46763 0.21814,-1.25157 0.6545,-1.16386 0.36323,0.073 1.87367,2.67078 2.03956,2.81975 0.12207,0.10961 0.28635,-0.27021 0.44163,-0.21727 0.3249,0.11078 0.53663,0.4282 0.80494,0.64229 1.19715,-0.75456 0.0401,-0.27321 1.72312,1.17247 0.14438,0.12402 0.38067,6.4e-4 0.57101,9.6e-4 0.37576,0.62654 0.75153,1.25309 1.1273,1.87963 0,0 -40.65662,13.94247 -40.65662,13.94247 l 0,0 c -0.12557,1.58981 0.16712,0.35728 -0.98954,-0.19346 -0.15303,-0.0729 -0.23419,0.24508 -0.35128,0.36762 -0.4235,-0.45599 -0.847,-0.91198 -1.2705,-1.36797 -1.29005,-0.84338 -0.6279,-0.28751 -1.85541,-1.81227 -0.1482,-0.0998 -0.548,0.81036 -0.56519,0.79484 -0.95617,-0.86278 -1.3723,-2.20966 -2.29356,-3.10924 -0.88455,0.70095 0.11084,0.10132 -1.44022,-1.00452 -0.75101,-0.53544 -0.55779,1.53753 -1.11587,0.97112 -0.66651,-0.67645 -1.11512,-1.53748 -1.67268,-2.30622 -0.41625,-0.70718 -0.8222,-1.42053 -1.24876,-2.12154 -0.26383,-0.43357 -0.44446,-0.94247 -0.82203,-1.28162 -0.10893,-0.0978 -0.25527,0.21812 -0.39805,0.18571 -0.76871,-0.17449 -1.27278,-0.9092 -2.17825,-0.57354 -1.60726,-0.21936 -2.24905,-1.34202 -3.35113,-2.47918 -1.49362,-1.54116 -3.1766,-2.78741 -4.93397,-4.01534 -4.63209,-3.38658 -9.073905,-7.02179 -13.865216,-10.18409 -4.199217,-3.30458 -8.749268,-6.12738 -13.161676,-9.14133 -6.472421,-4.13447 -13.454214,-7.63367 -18.754087,-13.33411 -8.321686,-8.40083 -15.972542,-17.60605 -22.133727,-27.71646 -2.856335,-5.29832 -3.689579,-6.52368 -6.002945,-12.10181 -3.834255,-9.2454 -6.279849,-19.00357 -10.0385,-28.2801 -2.722795,-7.29265 -5.17651,-14.69611 -7.993038,-21.95229 -2.923993,-7.53303 -3.119713,-7.37391 -6.4275863,-15.02034 -1.113555,-2.57408 -2.1744783,-5.1706 -3.2617174,-7.75591 -3.1163851,-7.75623 -5.91755139,-15.60806 -8.9090677,-23.41231 -1.9111332,-4.98575 -3.9955068,-9.90477 -5.8577028,-14.909 -0.8911078,-2.39466 -1.6637574,-4.83174 -2.4956358,-7.24761 -1.949529,-6.05608 -4.288702,-14.78793 -8.828832,-19.58664 -0.371703,-0.39287 -0.851517,-0.66706 -1.277276,-1.00059 0,0 41.18597,-11.39396 41.18597,-11.39396 z"
       transform="translate(0,308.2677)" />
    <path
       style="fill:#000000;fill-opacity:1;fill-rule:nonzero;stroke:none"
       id="path3665"
       d="m 162.0095,350.1442 c 1.65797,4.13157 3.59574,8.17434 5.01039,12.40128 1.02826,3.07242 1.33895,4.73262 2.06985,7.86791 0.28447,1.19081 0.51617,2.39548 0.85341,3.57244 0.27866,0.97255 0.66137,1.91223 0.99206,2.86835 0.37244,0.99071 0.8195,1.95649 1.11732,2.97212 0.39885,1.36016 0.62397,2.7656 0.96838,4.14055 1.48179,5.91562 0.55283,1.04312 1.61586,7.72197 1.90027,7.35079 1.87893,14.86653 1.65395,22.38865 -0.74427,10.93432 -3.46275,21.56131 -4.98205,32.38201 -0.67082,10.54197 -2.39351,20.95416 -3.82488,31.40598 -1.60692,10.2949 -3.53563,20.52103 -5.54341,30.74381 -1.49248,7.80514 -3.19819,15.57885 -4.62864,23.39632 -0.32822,1.79374 -0.57569,3.60132 -0.86354,5.40198 -0.3409,1.84788 -0.6818,3.69576 -1.0227,5.54364 -1.56011,11.223 -5.15811,22.01183 -8.59402,32.767 -4.21991,11.44208 -9.52962,22.49356 -12.66698,34.32233 -0.58216,2.1949 -0.97318,4.43609 -1.45977,6.65413 -2.86733,11.90867 -2.99784,24.10192 -3.01529,36.26733 0.007,7.85849 0.62757,15.7697 1.99992,23.51474 0.6391,3.60682 1.41341,7.1888 2.05333,10.79548 0.64512,2.62335 1.67756,7.05431 2.53707,9.6534 1.11379,3.36798 1.70922,4.01589 3.00299,7.23379 2.16915,5.39517 0.34078,1.85648 2.50567,5.73695 1.99375,3.8781 1.34318,0.996 1.39667,-1.06548 0.006,-0.23066 0.23767,-0.42899 0.21354,-0.65847 -0.0809,-0.76962 -0.34713,-1.5083 -0.52069,-2.26245 0,0 -36.87477,22.08893 -36.87477,22.08893 l 0,0 c -0.0862,-0.10814 -2.58226,-3.09712 -2.9866,-3.94599 -1.21147,-2.54335 -1.98007,-5.19932 -2.66483,-7.91569 -2.360183,-8.64671 -5.477951,-17.09734 -6.736117,-26.02357 -0.305461,-1.69896 -1.832065,-10.10761 -2.039614,-11.61423 -1.159658,-8.41811 -1.675388,-16.97232 -1.809241,-25.45918 -0.145725,-13.36516 0.269932,-26.81871 3.80692,-39.80191 0.586928,-2.57703 1.098019,-5.17252 1.760786,-7.73109 2.071421,-7.99663 2.218907,-7.36994 4.835056,-15.07069 2.24655,-6.61283 4.40365,-13.24792 6.96695,-19.75023 3.37226,-10.10885 5.94596,-20.50018 8.04345,-30.946 2.4753,-11.23213 4.45824,-22.56796 6.49369,-33.88616 0.8118,-5.41411 0.73602,-5.41442 1.80728,-10.64626 0.31563,-1.5415 0.71747,-3.06499 1.01287,-4.61049 0.97612,-5.10691 0.74,-5.09768 1.57064,-10.32662 0.24497,-1.54214 0.55477,-3.07328 0.83216,-4.60992 1.42714,-10.48715 3.74583,-20.84383 4.24418,-31.44509 1.40873,-10.0324 3.51591,-19.9804 4.03397,-30.12138 -0.22306,-6.48582 -0.48168,-12.99363 -1.77244,-19.37441 -0.44064,-1.984 -0.95913,-4.44443 -1.51052,-6.38697 -1.30157,-4.58532 -3.12937,-9.02747 -4.01938,-13.73148 -1.64073,-5.61632 -3.85027,-11.03844 -7.49939,-15.68469 0,0 41.63651,-8.77264 41.63651,-8.77264 z"
       transform="translate(0,308.2677)" />
    <text
       xml:space="preserve"
       style="font-size:56px;font-style:normal;font-variant:normal;font-weight:normal;font-stretch:normal;text-align:start;line-height:125%;writing-mode:lr-tb;text-anchor:start;fill:#000000;fill-opacity:1;stroke:none;font-family:Sans;-inkscape-font-specification:Sans"
       x="-267.69043"
       y="681.63623"
       id="text3667"
       sodipodi:linespacing="125%"><tspan
         sodipodi:role="line"
         id="tspan3669"
         x="-267.69043"
         y="681.63623">шарф</tspan></text>
  </g>
</svg>
