<?xml version="1.0" encoding="UTF-8" standalone="no"?>
<!-- Created with Inkscape (http://www.inkscape.org/) -->

<svg
   xmlns:dc="http://purl.org/dc/elements/1.1/"
   xmlns:cc="http://creativecommons.org/ns#"
   xmlns:rdf="http://www.w3.org/1999/02/22-rdf-syntax-ns#"
   xmlns:svg="http://www.w3.org/2000/svg"
   xmlns="http://www.w3.org/2000/svg"
   xmlns:sodipodi="http://sodipodi.sourceforge.net/DTD/sodipodi-0.dtd"
   xmlns:inkscape="http://www.inkscape.org/namespaces/inkscape"
   width="1280"
   height="800"
   id="svg2"
   version="1.1"
   inkscape:version="0.47 r22583"
   sodipodi:docname="Новый документ 1">
  <defs
     id="defs4">
    <inkscape:perspective
       sodipodi:type="inkscape:persp3d"
       inkscape:vp_x="0 : 526.18109 : 1"
       inkscape:vp_y="0 : 1000 : 0"
       inkscape:vp_z="744.09448 : 526.18109 : 1"
       inkscape:persp3d-origin="372.04724 : 350.78739 : 1"
       id="perspective10" />
    <inkscape:perspective
       id="perspective2981"
       inkscape:persp3d-origin="0.5 : 0.33333333 : 1"
       inkscape:vp_z="1 : 0.5 : 1"
       inkscape:vp_y="0 : 1000 : 0"
       inkscape:vp_x="0 : 0.5 : 1"
       sodipodi:type="inkscape:persp3d" />
    <inkscape:perspective
       id="perspective3803"
       inkscape:persp3d-origin="0.5 : 0.33333333 : 1"
       inkscape:vp_z="1 : 0.5 : 1"
       inkscape:vp_y="0 : 1000 : 0"
       inkscape:vp_x="0 : 0.5 : 1"
       sodipodi:type="inkscape:persp3d" />
  </defs>
  <sodipodi:namedview
     id="base"
     pagecolor="#ffffff"
     bordercolor="#666666"
     borderopacity="1.0"
     inkscape:pageopacity="0.0"
     inkscape:pageshadow="2"
     inkscape:zoom="0.49497475"
     inkscape:cx="550.20395"
     inkscape:cy="356.41945"
     inkscape:document-units="px"
     inkscape:current-layer="layer1"
     showgrid="false"
     width="1052.36px"
     inkscape:window-width="1280"
     inkscape:window-height="747"
     inkscape:window-x="0"
     inkscape:window-y="26"
     inkscape:window-maximized="1" />
  <metadata
     id="metadata7">
    <rdf:RDF>
      <cc:Work
         rdf:about="">
        <dc:format>image/svg+xml</dc:format>
        <dc:type
           rdf:resource="http://purl.org/dc/dcmitype/StillImage" />
        <dc:title></dc:title>
      </cc:Work>
    </rdf:RDF>
  </metadata>
  <g
     inkscape:label="Layer 1"
     inkscape:groupmode="layer"
     id="layer1"
     transform="translate(0,-252.36218)">
    <g
       id="g3861"
       transform="matrix(0.55741947,0,0,0.55741947,-0.12447577,168.90486)">
      <path
         id="path3763"
         transform="translate(0,252.36218)"
         d="m 71.375,132.40625 c -12.248345,0.13835 -23.269343,2.38848 -52.4375,10.375 -6.199929,1.6976 -11.4159313,3.19214 -16.09375,4.65625 l 0,429.0625 2.4375,2.15625 c 0,0 35.87072,-73.24349 39.40625,-108.09375 2.36155,-23.27814 14.8964,-58.07817 27.78125,-82.8125 9.96095,-19.1215 9.32366,-21.74087 18.1875,-30.3125 11.49049,-11.11168 17.15784,-11.38008 23.21875,-10.875 6.06092,0.50507 7.842,1.76603 11.125,3.28125 6.67716,3.08176 8.18877,3.43622 8.0625,3.5625 7.55448,3.39248 16.20431,15.53435 23.625,25.5 11.11168,16.66752 15.78125,17.9375 15.78125,17.9375 l -0.5,5.53125 c 0,0 5.55314,-0.98715 9.59375,-11.59375 4.04061,-10.6066 3.03633,-11.13912 2.53125,-25.28125 -0.50507,-14.14214 -2.53125,-16.65625 -2.53125,-16.65625 l 2.53125,-7.5625 c 2.52538,-7.57614 1.52538,-23.25666 -1,-28.8125 -2.52538,-5.55584 -4.5625,-5.53125 -4.5625,-5.53125 0,0 18.1875,-46.48953 18.1875,-66.1875 0,-19.69798 -4.54378,-34.34771 -12.625,-49.5 -8.08122,-15.15229 -19.21256,-26.74302 -35.375,-39.875 -16.16244,-13.13198 -32.80868,-16.67227 -58.0625,-18.1875 -7.891816,-0.47351 -13.71382,-0.84414 -19.28125,-0.78125 z"
         style="fill:none;stroke:#000000;stroke-width:6.25;stroke-linecap:butt;stroke-linejoin:miter;stroke-miterlimit:4;stroke-opacity:1;stroke-dasharray:none" />
      <path
         sodipodi:nodetypes="csssssssc"
         id="path3765"
         d="m 88.62946,471.91026 c -2.02031,4.29315 -3.15805,6.56778 -3.03046,11.11168 0.25254,8.99331 5.05076,14.89975 10.35406,20.96067 4.70948,5.38226 19.95052,10.6066 22.22336,7.07106 2.27284,-3.53553 8.74959,-12.35819 9.34391,-19.19289 1.01016,-11.61675 -4.0573,-20.29148 -7.82868,-23.48605 -6.71133,-5.68487 -7.57615,-4.79822 -13.8896,-5.55584 -3.76944,-0.45233 -8.33376,0.50508 -11.86929,2.77792 -2.47734,1.59257 -4.54569,5.55584 -5.3033,6.31345 z"
         style="fill:none;stroke:#000000;stroke-width:6.25;stroke-linecap:butt;stroke-linejoin:miter;stroke-miterlimit:4;stroke-opacity:1;stroke-dasharray:none" />
      <path
         sodipodi:nodetypes="cssssssc"
         id="path3773"
         d="m 95.70053,471.15265 c 0,0 -5.30331,4.29315 -5.05077,10.10152 0.25254,5.80838 1.26269,10.85914 4.29315,14.64722 3.03046,3.78807 6.89694,6.63314 12.12183,7.57614 5.78945,1.0449 8.09878,0.78395 10.85914,-3.283 2.32607,-3.42709 5.04041,-10.67766 4.54569,-15.15228 -1.08383,-9.80301 -6.49038,-12.33094 -9.84899,-14.64722 -3.6618,-2.52538 -10.35406,-4.04061 -16.92005,0.75762 z"
         style="fill:none;stroke:#000000;stroke-width:6.25;stroke-linecap:butt;stroke-linejoin:miter;stroke-miterlimit:4;stroke-opacity:1;stroke-dasharray:none" />
      <path
         transform="matrix(0.92658316,0,0,0.92658316,30.5568,232.84693)"
         d="m 88.135808,273.52112 c 0,3.10327 -2.430902,5.61897 -5.42957,5.61897 -2.998669,0 -5.42957,-2.5157 -5.42957,-5.61897 0,-3.10328 2.430901,-5.61898 5.42957,-5.61898 2.998668,0 5.42957,2.5157 5.42957,5.61898 z"
         sodipodi:ry="5.6189737"
         sodipodi:rx="5.4295697"
         sodipodi:cy="273.52112"
         sodipodi:cx="82.706238"
         id="path3775"
         style="fill:none;stroke:#000000;stroke-width:10.414608;stroke-linejoin:round;stroke-miterlimit:4;stroke-opacity:1;stroke-dasharray:none"
         sodipodi:type="arc" />
      <path
         sodipodi:nodetypes="cssssssccccccccccc"
         id="path3777"
         d="m 177.64915,559.41473 c -4.92449,-6.31346 -7.5902,-9.19662 -17.80393,-11.11168 -6.06093,-1.13642 -13.00572,-1.13642 -15.78364,1.6415 -2.77792,2.77792 -4.54569,5.55584 -3.91434,7.95495 0.63134,2.39911 3.53553,8.83883 6.81853,13.76333 3.28299,4.92449 10.10152,19.69797 16.92005,23.48604 6.81853,3.78808 7.82868,4.54569 12.75318,5.05077 4.92449,0.50507 5.05076,0.3788 5.05076,0.3788 l 2.02031,-5.42957 1.38896,-5.42957 0.3788,-5.42957 0,-5.05076 -0.50507,-5.17703 -0.63135,-4.67196 -1.13642,-4.29315 -2.14657,-3.6618 -1.76777,-1.89403 -1.6415,-0.12627 z"
         style="fill:none;stroke:#000000;stroke-width:6.25;stroke-linecap:butt;stroke-linejoin:miter;stroke-miterlimit:4;stroke-opacity:1;stroke-dasharray:none" />
      <path
         id="path3779"
         d="m 146.8395,572.1679 c 6.06091,14.01587 4.67195,12.75318 8.9651,23.48605 4.29315,10.73287 12.87945,25.75889 13.76333,30.30458 0.88388,4.54568 2.90419,9.47018 3.15673,15.53109 0.25254,6.06092 -0.50508,7.57615 -0.50508,7.57615 l 0,0"
         style="fill:none;stroke:#000000;stroke-width:6.25;stroke-linecap:butt;stroke-linejoin:miter;stroke-miterlimit:4;stroke-opacity:1;stroke-dasharray:none" />
      <path
         id="path3781"
         d="m 149.49115,621.41284 0,0 0,0 c 0,0 0,0 -0.25254,-3.53553 -0.25254,-3.53554 -1.89404,-7.44988 -4.29315,-11.74303 -2.39911,-4.29315 -2.52538,-5.17703 -11.11168,-15.53109 0,0 3.03046,3.53553 8.08122,4.54568 5.05077,1.01016 5.05077,1.01016 5.05077,1.01016 0,0 -3.78807,-5.68211 -5.93465,-12.62691 -2.14657,-6.9448 -2.90419,-16.28871 -2.90419,-16.28871 l 0,0"
         style="fill:none;stroke:#000000;stroke-width:6.25;stroke-linecap:butt;stroke-linejoin:miter;stroke-miterlimit:4;stroke-opacity:1;stroke-dasharray:none" />
      <path
         id="path3783"
         d="m 138.5,567.21932 c 5,3.03572 1.25,0.35714 5,3.03572 3.75,2.67857 3.75,2.67857 3.75,2.67857 l 0,0"
         style="fill:none;stroke:#000000;stroke-width:6.25;stroke-linecap:butt;stroke-linejoin:miter;stroke-miterlimit:4;stroke-opacity:1;stroke-dasharray:none" />
    </g>
    <path
       sodipodi:type="arc"
       style="fill:none;stroke:#000000;stroke-width:6.125;stroke-linejoin:round;stroke-miterlimit:4;stroke-opacity:1;stroke-dasharray:none"
       id="path3824"
       sodipodi:cx="295.71429"
       sodipodi:cy="284.28571"
       sodipodi:rx="27.142857"
       sodipodi:ry="24.285715"
       d="m 322.85715,284.28571 a 27.142857,24.285715 0 1 1 -54.28571,0 27.142857,24.285715 0 1 1 54.28571,0 z"
       transform="matrix(0.48288634,0,0,0.48288634,-1.4552831,292.23455)" />
    <path
       sodipodi:type="arc"
       style="fill:none;stroke:#000000;stroke-width:6.125;stroke-linejoin:round;stroke-miterlimit:4;stroke-opacity:1;stroke-dasharray:none"
       id="path3826"
       sodipodi:cx="377.14285"
       sodipodi:cy="187.14285"
       sodipodi:rx="45.714287"
       sodipodi:ry="44.285713"
       d="m 422.85714,187.14285 a 45.714287,44.285713 0 1 1 -91.42857,0 45.714287,44.285713 0 1 1 91.42857,0 z"
       transform="matrix(0.67998184,0,0,0.67998184,-53.200557,275.30639)" />
    <path
       sodipodi:type="arc"
       style="fill:none;stroke:#000000;stroke-width:6.125;stroke-linejoin:round;stroke-miterlimit:4;stroke-opacity:1;stroke-dasharray:none"
       id="path3828"
       sodipodi:cx="584.28571"
       sodipodi:cy="141.42857"
       sodipodi:rx="101.42857"
       sodipodi:ry="92.85714"
       d="m 685.71428,141.42857 a 101.42857,92.85714 0 1 1 -202.85715,0 101.42857,92.85714 0 1 1 202.85715,0 z"
       transform="translate(-219.40105,237.18016)" />
    <path
       style="fill:none;stroke:#000000;stroke-width:8.4692173;stroke-linejoin:round;stroke-miterlimit:4;stroke-opacity:1;stroke-dasharray:none"
       d="m 490.93458,576.79191 c -32.15687,0 -58.03125,25.87438 -58.03125,58.03125 l 0,195.09375 c 0,32.15687 25.87438,58.0625 58.03125,58.0625 l 312,0.0312 c 15.20426,0.002 -4.27522,53.53362 -7.05314,63.13008 -14.74558,50.93931 -43.44686,77.27611 -43.44686,77.27611 0,0 43.42037,-3.0392 77.76555,-41.42491 34.34527,-38.3858 42.68937,-62.11072 59.60947,-98.98128 12.00523,-36.84648 13.31153,-49.77281 14.75003,-58.09375 11.1117,-64.27364 0,-195.09375 0,-195.09375 0,-32.15687 -25.90573,-58.03125 -58.06255,-58.03125 l -355.5625,0 0,5e-5 z"
       id="rect3830"
       sodipodi:nodetypes="ccccsscscscccc" />
    <g
       id="g3832"
       transform="matrix(1.2975178,0,0,1.0702897,-296.32494,8.5008652)">
      <rect
         ry="11.589295"
         y="686.04706"
         x="648.52759"
         height="50.777237"
         width="189.88942"
         id="rect3793"
         style="fill:none;stroke:#000000;stroke-width:4.04418898;stroke-linejoin:round;stroke-miterlimit:4;stroke-opacity:1;stroke-dasharray:none" />
      <rect
         ry="11.589295"
         y="608.26532"
         x="648.52759"
         height="50.777237"
         width="189.88942"
         id="rect3793-6"
         style="fill:none;stroke:#000000;stroke-width:4.04418898;stroke-linejoin:round;stroke-miterlimit:4;stroke-opacity:1;stroke-dasharray:none" />
    </g>
    <text
       xml:space="preserve"
       style="font-size:40px;font-style:normal;font-weight:normal;fill:#000000;fill-opacity:1;stroke:none;font-family:Bitstream Vera Sans"
       x="612.92383"
       y="704.97418"
       id="text3849"><tspan
         sodipodi:role="line"
         id="tspan3851"
         x="612.92383"
         y="704.97418">login</tspan></text>
    <text
       xml:space="preserve"
       style="font-size:40px;font-style:normal;font-weight:normal;fill:#000000;fill-opacity:1;stroke:none;font-family:Bitstream Vera Sans"
       x="581.4953"
       y="780.68848"
       id="text3853"><tspan
         sodipodi:role="line"
         id="tspan3855"
         x="581.4953"
         y="780.68848">********</tspan></text>
    <text
       xml:space="preserve"
       style="font-size:204.29298401px;font-style:normal;font-weight:normal;fill:#000000;fill-opacity:1;stroke:none;font-family:Bitstream Vera Sans"
       x="314.66425"
       y="456.05612"
       id="text3857"><tspan
         sodipodi:role="line"
         id="tspan3859"
         x="314.66425"
         y="456.05612">?</tspan></text>
  </g>
</svg>
