<?xml version="1.0" encoding="UTF-8" standalone="no"?>
<!-- Created with Inkscape (http://www.inkscape.org/) -->

<svg
   xmlns:dc="http://purl.org/dc/elements/1.1/"
   xmlns:cc="http://creativecommons.org/ns#"
   xmlns:rdf="http://www.w3.org/1999/02/22-rdf-syntax-ns#"
   xmlns:svg="http://www.w3.org/2000/svg"
   xmlns="http://www.w3.org/2000/svg"
   xmlns:sodipodi="http://sodipodi.sourceforge.net/DTD/sodipodi-0.dtd"
   xmlns:inkscape="http://www.inkscape.org/namespaces/inkscape"
   width="1052.3622"
   height="744.09448"
   id="svg2"
   version="1.1"
   inkscape:version="0.47 r22583"
   sodipodi:docname="pigeon.svg">
  <defs
     id="defs4">
    <inkscape:perspective
       sodipodi:type="inkscape:persp3d"
       inkscape:vp_x="0 : 526.18109 : 1"
       inkscape:vp_y="0 : 1000 : 0"
       inkscape:vp_z="744.09448 : 526.18109 : 1"
       inkscape:persp3d-origin="372.04724 : 350.78739 : 1"
       id="perspective10" />
    <inkscape:perspective
       id="perspective2824"
       inkscape:persp3d-origin="0.5 : 0.33333333 : 1"
       inkscape:vp_z="1 : 0.5 : 1"
       inkscape:vp_y="0 : 1000 : 0"
       inkscape:vp_x="0 : 0.5 : 1"
       sodipodi:type="inkscape:persp3d" />
  </defs>
  <sodipodi:namedview
     id="base"
     pagecolor="#ffffff"
     bordercolor="#666666"
     borderopacity="1.0"
     inkscape:pageopacity="0.0"
     inkscape:pageshadow="2"
     inkscape:zoom="0.35"
     inkscape:cx="362.1059"
     inkscape:cy="451.3091"
     inkscape:document-units="px"
     inkscape:current-layer="layer1"
     showgrid="false"
     inkscape:window-width="1280"
     inkscape:window-height="747"
     inkscape:window-x="0"
     inkscape:window-y="26"
     inkscape:window-maximized="1" />
  <metadata
     id="metadata7">
    <rdf:RDF>
      <cc:Work
         rdf:about="">
        <dc:format>image/svg+xml</dc:format>
        <dc:type
           rdf:resource="http://purl.org/dc/dcmitype/StillImage" />
        <dc:title></dc:title>
      </cc:Work>
    </rdf:RDF>
  </metadata>
  <g
     inkscape:label="Layer 1"
     inkscape:groupmode="layer"
     id="layer1"
     transform="translate(0,-308.2677)">
    <g
       id="g2818"
       transform="matrix(3.6422513,0.02586308,-0.02586308,3.6422513,-429.63637,-1067.1955)"
       inkscape:export-filename="/home/annndrey/work/git/laborder/laborder/static/picts/pigeon.png"
       inkscape:export-xdpi="90"
       inkscape:export-ydpi="90">
      <path
         sodipodi:nodetypes="cssscscscsssscc"
         id="path2834"
         d="m 152.49999,407.71932 c 16.9643,-11.24999 24.65769,-13.04182 33.03572,-13.57142 7.70078,-0.48679 15.35714,1.96428 18.57144,5.53571 1.24717,1.38575 3.84888,2.47406 5.53571,9.10714 1.84499,7.25502 1.07143,10.53572 1.07143,10.53572 0,0 2.49999,0.17857 3.92856,1.60714 1.42858,1.42857 1.96429,6.07143 1.96429,6.07143 0,0 3.57144,3.03571 4.64286,4.64285 1.07143,1.60715 1.78571,7.14286 1.78571,7.14286 0,0 -6.07142,-3.39285 -10,-4.46428 -3.92857,-1.07143 -11.96428,-1.07143 -14.10714,0 -2.14286,1.07143 -11.42857,2.85714 -13.39286,14.28571 -1.96428,11.42857 3.85458,19.7095 -3.21428,36.42857 -8.99648,21.27822 -29.64286,25.53572 -29.64286,25.53572 -0.22014,-39.01841 -0.95289,-61.25375 -0.17858,-102.85715 z"
         style="color:#000000;fill:none;stroke:#000000;stroke-width:1.62;stroke-linecap:round;stroke-linejoin:round;stroke-miterlimit:4;stroke-opacity:1;stroke-dasharray:none;stroke-dashoffset:0;marker:none;visibility:visible;display:inline;overflow:visible;enable-background:accumulate" />
      <path
         sodipodi:open="true"
         sodipodi:end="6.2138335"
         sodipodi:start="0"
         transform="matrix(1.0183354,0.26650742,-0.19988056,0.76375156,78.370891,46.69711)"
         d="m 196.22193,413.25504 c 0,2.9361 -1.98616,5.31628 -4.43621,5.31628 -2.45005,0 -4.43621,-2.38018 -4.43621,-5.31628 0,-2.93611 1.98616,-5.31629 4.43621,-5.31629 2.33075,0 4.26404,2.16147 4.42555,4.94789"
         sodipodi:ry="5.3162823"
         sodipodi:rx="4.4362121"
         sodipodi:cy="413.25504"
         sodipodi:cx="191.78572"
         id="path2836"
         style="color:#000000;fill:none;stroke:#000000;stroke-width:1.77708411;stroke-linecap:round;stroke-linejoin:round;stroke-miterlimit:4;stroke-opacity:1;stroke-dasharray:none;stroke-dashoffset:0;marker:none;visibility:visible;display:inline;overflow:visible;enable-background:accumulate"
         sodipodi:type="arc" />
      <path
         sodipodi:end="6.2417037"
         sodipodi:start="0"
         transform="matrix(0.98168954,0.19048794,-0.19048794,0.98168954,82.641673,-28.585765)"
         d="m 191.91964,413.12112 c 0,0.4989 -0.32979,0.90333 -0.73661,0.90333 -0.40682,0 -0.73661,-0.40443 -0.73661,-0.90333 0,-0.49889 0.32979,-0.90332 0.73661,-0.90332 0.39493,0 0.71959,0.38196 0.73597,0.86586 l -0.73597,0.0375 z"
         sodipodi:ry="0.9033255"
         sodipodi:rx="0.73660713"
         sodipodi:cy="413.12112"
         sodipodi:cx="191.18303"
         id="path3610"
         style="color:#000000;fill:none;stroke:#000000;stroke-width:1.62;stroke-linecap:round;stroke-linejoin:round;stroke-miterlimit:4;stroke-opacity:1;stroke-dasharray:none;stroke-dashoffset:0;marker:none;visibility:visible;display:inline;overflow:visible;enable-background:accumulate"
         sodipodi:type="arc" />
      <path
         id="path3612"
         d="m 210.44643,419.41575 c 0,0 -2.67857,-0.35714 -3.75,0.89286 -1.07143,1.25 -1.78572,1.875 -0.98214,3.21429 0.80357,1.33928 0.71428,2.23214 4.46428,3.125 3.75,0.89285 6.16072,0.44642 6.16072,0.44642 l -0.625,-3.30357 -1.96429,-3.30357 -2.32143,-0.89286 -1.33928,-0.35714 -0.35715,0.0893 0,0"
         style="color:#000000;fill:none;stroke:#000000;stroke-width:1.62;stroke-linecap:butt;stroke-linejoin:miter;stroke-miterlimit:4;stroke-opacity:1;stroke-dasharray:none;stroke-dashoffset:0;marker:none;visibility:visible;display:inline;overflow:visible;enable-background:accumulate" />
      <path
         id="path3616"
         d="m 206.60714,425.13004 c 0,0 0.35715,0.44643 -0.71428,2.14286 -1.07143,1.69642 -6.25,6.42857 -6.875,6.69642 -0.625,0.26786 -0.0893,0.0893 -0.71429,0.35715 -0.625,0.26785 5.35714,-1.07143 5.35714,-1.07143 l 3.66072,0 4.28571,0.53571 3.75,0.98215 3.125,1.42857 2.85715,1.51785 1.60714,0.98215 -0.35714,-3.39286 -1.42858,-4.19643 -2.41071,-2.23214 -1.96429,-1.875 -3.39285,0 -3.75,-0.53572 -3.03572,-1.33928 z"
         style="color:#000000;fill:none;stroke:#000000;stroke-width:1.62;stroke-linecap:round;stroke-linejoin:round;stroke-miterlimit:4;stroke-opacity:1;stroke-dasharray:none;stroke-dashoffset:0;marker:none;visibility:visible;display:inline;overflow:visible;enable-background:accumulate" />
    </g>
  </g>
</svg>
